<svg xmlns="http://www.w3.org/2000/svg" xmlns:xlink="http://www.w3.org/1999/xlink" width="1080" zoomAndPan="magnify" viewBox="0 0 810 187.499995" height="250" preserveAspectRatio="xMidYMid meet" version="1.0"><defs><g/><clipPath id="48806226e3"><path d="M 1.078125 0 L 808.921875 0 L 808.921875 187 L 1.078125 187 Z M 1.078125 0 " clip-rule="nonzero"/></clipPath></defs><g clip-path="url(#48806226e3)"><path fill="#ffffff" d="M 1.078125 0 L 808.921875 0 L 808.921875 187 L 1.078125 187 Z M 1.078125 0 " fill-opacity="1" fill-rule="nonzero"/><path fill="#ffffff" d="M 1.078125 0 L 808.921875 0 L 808.921875 187 L 1.078125 187 Z M 1.078125 0 " fill-opacity="1" fill-rule="nonzero"/></g><g fill="#000000" fill-opacity="1"><g transform="translate(135.959435, 110.330777)"><g><path d="M 13.046875 -7.984375 C 13.046875 -6.710938 13.117188 -5.679688 13.265625 -4.890625 C 13.421875 -4.109375 13.75 -3.503906 14.25 -3.078125 C 14.75 -2.660156 15.457031 -2.367188 16.375 -2.203125 C 17.300781 -2.035156 18.515625 -1.9375 20.015625 -1.90625 L 20.015625 0 L 2.25 0 L 2.25 -1.90625 C 3.425781 -1.9375 4.375 -2.035156 5.09375 -2.203125 C 5.8125 -2.367188 6.367188 -2.648438 6.765625 -3.046875 C 7.171875 -3.453125 7.441406 -4.023438 7.578125 -4.765625 C 7.710938 -5.503906 7.78125 -6.457031 7.78125 -7.625 L 7.78125 -31 C 7.78125 -32.175781 7.71875 -33.125 7.59375 -33.84375 C 7.476562 -34.5625 7.242188 -35.128906 6.890625 -35.546875 C 6.546875 -35.960938 6.035156 -36.242188 5.359375 -36.390625 C 4.691406 -36.546875 3.828125 -36.65625 2.765625 -36.71875 L 2.765625 -38.625 L 31.765625 -38.625 L 32.3125 -29.046875 L 30.546875 -29.046875 C 30.347656 -30.484375 30.03125 -31.660156 29.59375 -32.578125 C 29.164062 -33.503906 28.554688 -34.234375 27.765625 -34.765625 C 26.984375 -35.304688 25.988281 -35.679688 24.78125 -35.890625 C 23.582031 -36.109375 22.078125 -36.21875 20.265625 -36.21875 L 13.890625 -36.21875 C 13.328125 -36.21875 13.046875 -35.9375 13.046875 -35.375 L 13.046875 -20.21875 C 14.648438 -20.21875 16.03125 -20.304688 17.1875 -20.484375 C 18.34375 -20.671875 19.296875 -21 20.046875 -21.46875 C 20.796875 -21.9375 21.367188 -22.570312 21.765625 -23.375 C 22.171875 -24.175781 22.425781 -25.210938 22.53125 -26.484375 L 24.28125 -26.484375 L 24.28125 -11.796875 L 22.53125 -11.796875 C 22.363281 -13.066406 22.09375 -14.117188 21.71875 -14.953125 C 21.351562 -15.785156 20.8125 -16.4375 20.09375 -16.90625 C 19.375 -17.375 18.445312 -17.707031 17.3125 -17.90625 C 16.175781 -18.113281 14.753906 -18.21875 13.046875 -18.21875 Z M 13.046875 -7.984375 "/></g></g></g><g fill="#000000" fill-opacity="1"><g transform="translate(180.606362, 110.330777)"><g><path d="M 11.140625 -7.984375 C 11.140625 -6.609375 11.171875 -5.519531 11.234375 -4.71875 C 11.304688 -3.914062 11.484375 -3.300781 11.765625 -2.875 C 12.046875 -2.457031 12.453125 -2.179688 12.984375 -2.046875 C 13.523438 -1.921875 14.28125 -1.820312 15.25 -1.75 L 15.25 0 L 1.90625 0 L 1.90625 -1.75 C 2.875 -1.789062 3.640625 -1.882812 4.203125 -2.03125 C 4.773438 -2.175781 5.210938 -2.453125 5.515625 -2.859375 C 5.816406 -3.265625 6.007812 -3.84375 6.09375 -4.59375 C 6.175781 -5.34375 6.21875 -6.351562 6.21875 -7.625 L 6.21875 -13.5 C 6.21875 -15.769531 6.191406 -17.539062 6.140625 -18.8125 C 6.097656 -20.082031 5.929688 -21.019531 5.640625 -21.625 C 5.359375 -22.226562 4.914062 -22.585938 4.3125 -22.703125 C 3.707031 -22.816406 2.875 -22.875 1.8125 -22.875 L 1.8125 -24.640625 L 10.59375 -26.546875 L 11.28125 -20.3125 L 11.484375 -20.3125 C 11.921875 -21.320312 12.460938 -22.242188 13.109375 -23.078125 C 13.765625 -23.910156 14.476562 -24.617188 15.25 -25.203125 C 16.019531 -25.796875 16.820312 -26.257812 17.65625 -26.59375 C 18.5 -26.925781 19.351562 -27.09375 20.21875 -27.09375 C 21.289062 -27.09375 22.132812 -26.832031 22.75 -26.3125 C 23.375 -25.789062 23.6875 -25.097656 23.6875 -24.234375 C 23.6875 -23.429688 23.429688 -22.800781 22.921875 -22.34375 C 22.421875 -21.894531 21.703125 -21.671875 20.765625 -21.671875 C 20.234375 -21.671875 19.78125 -21.738281 19.40625 -21.875 C 19.039062 -22.007812 18.71875 -22.148438 18.4375 -22.296875 C 18.15625 -22.453125 17.890625 -22.59375 17.640625 -22.71875 C 17.390625 -22.851562 17.113281 -22.921875 16.8125 -22.921875 C 15.90625 -22.921875 15 -22.34375 14.09375 -21.1875 C 13.195312 -20.039062 12.492188 -18.582031 11.984375 -16.8125 C 11.722656 -15.84375 11.515625 -14.742188 11.359375 -13.515625 C 11.210938 -12.296875 11.140625 -11.019531 11.140625 -9.6875 Z M 11.140625 -7.984375 "/></g></g></g><g fill="#000000" fill-opacity="1"><g transform="translate(215.571793, 110.330777)"><g><path d="M 26.1875 -4.671875 C 23.34375 -1.222656 19.816406 0.5 15.609375 0.5 C 13.628906 0.5 11.835938 0.175781 10.234375 -0.46875 C 8.628906 -1.125 7.25 -2.046875 6.09375 -3.234375 C 4.9375 -4.421875 4.039062 -5.84375 3.40625 -7.5 C 2.769531 -9.15625 2.453125 -10.988281 2.453125 -13 C 2.453125 -15.039062 2.785156 -16.925781 3.453125 -18.65625 C 4.128906 -20.394531 5.078125 -21.882812 6.296875 -23.125 C 7.515625 -24.363281 8.96875 -25.332031 10.65625 -26.03125 C 12.34375 -26.738281 14.191406 -27.09375 16.203125 -27.09375 C 19.453125 -27.09375 21.960938 -26.210938 23.734375 -24.453125 C 25.503906 -22.703125 26.390625 -20.1875 26.390625 -16.90625 C 26.390625 -16.4375 26.296875 -16.148438 26.109375 -16.046875 C 25.929688 -15.953125 25.503906 -15.90625 24.828125 -15.90625 L 8.328125 -15.90625 C 8.265625 -15.632812 8.210938 -15.304688 8.171875 -14.921875 C 8.140625 -14.535156 8.125 -14.109375 8.125 -13.640625 C 8.125 -11.898438 8.332031 -10.316406 8.75 -8.890625 C 9.164062 -7.472656 9.765625 -6.265625 10.546875 -5.265625 C 11.335938 -4.265625 12.273438 -3.488281 13.359375 -2.9375 C 14.453125 -2.382812 15.671875 -2.109375 17.015625 -2.109375 C 18.410156 -2.109375 19.710938 -2.414062 20.921875 -3.03125 C 22.128906 -3.65625 23.367188 -4.671875 24.640625 -6.078125 Z M 17.90625 -18.21875 C 18.582031 -18.21875 19.117188 -18.234375 19.515625 -18.265625 C 19.921875 -18.296875 20.222656 -18.359375 20.421875 -18.453125 C 20.617188 -18.554688 20.75 -18.703125 20.8125 -18.890625 C 20.882812 -19.078125 20.921875 -19.320312 20.921875 -19.625 C 20.921875 -21.15625 20.425781 -22.378906 19.4375 -23.296875 C 18.457031 -24.222656 17.113281 -24.6875 15.40625 -24.6875 C 11.789062 -24.6875 9.550781 -22.53125 8.6875 -18.21875 Z M 17.90625 -18.21875 "/></g></g></g><g fill="#000000" fill-opacity="1"><g transform="translate(255.352894, 110.330777)"><g><path d="M 17.515625 -14.84375 C 15.609375 -14.113281 13.992188 -13.394531 12.671875 -12.6875 C 11.347656 -11.988281 10.285156 -11.285156 9.484375 -10.578125 C 8.679688 -9.878906 8.101562 -9.175781 7.75 -8.46875 C 7.394531 -7.769531 7.21875 -7.054688 7.21875 -6.328125 C 7.21875 -5.222656 7.585938 -4.316406 8.328125 -3.609375 C 9.066406 -2.910156 10.035156 -2.5625 11.234375 -2.5625 C 12.109375 -2.5625 12.921875 -2.773438 13.671875 -3.203125 C 14.421875 -3.640625 15.078125 -4.234375 15.640625 -4.984375 C 16.210938 -5.742188 16.664062 -6.632812 17 -7.65625 C 17.34375 -8.675781 17.515625 -9.753906 17.515625 -10.890625 Z M 17.515625 -17.015625 L 17.515625 -19.0625 C 17.515625 -23.144531 15.773438 -25.1875 12.296875 -25.1875 C 11.722656 -25.1875 11.234375 -25.132812 10.828125 -25.03125 C 10.429688 -24.9375 10.097656 -24.769531 9.828125 -24.53125 C 9.566406 -24.300781 9.328125 -23.96875 9.109375 -23.53125 C 8.890625 -23.09375 8.679688 -22.554688 8.484375 -21.921875 C 8.109375 -20.953125 7.742188 -20.304688 7.390625 -19.984375 C 7.046875 -19.671875 6.539062 -19.515625 5.875 -19.515625 C 4.195312 -19.515625 3.359375 -20.351562 3.359375 -22.03125 C 3.359375 -23.632812 4.210938 -24.878906 5.921875 -25.765625 C 7.628906 -26.648438 10.050781 -27.09375 13.1875 -27.09375 C 16.539062 -27.09375 18.914062 -26.5 20.3125 -25.3125 C 21.71875 -24.125 22.421875 -22.109375 22.421875 -19.265625 L 22.421875 -8.03125 C 22.421875 -4.21875 23.175781 -2.3125 24.6875 -2.3125 C 25.15625 -2.3125 25.601562 -2.367188 26.03125 -2.484375 C 26.46875 -2.597656 26.835938 -2.90625 27.140625 -3.40625 L 27.84375 -2.203125 C 27.445312 -1.429688 26.710938 -0.785156 25.640625 -0.265625 C 24.566406 0.242188 23.445312 0.5 22.28125 0.5 C 20.800781 0.5 19.703125 0.03125 18.984375 -0.90625 C 18.265625 -1.84375 17.90625 -3.160156 17.90625 -4.859375 L 17.65625 -4.859375 C 16.789062 -3.222656 15.585938 -1.925781 14.046875 -0.96875 C 12.503906 -0.0195312 10.800781 0.453125 8.9375 0.453125 C 6.820312 0.453125 5.160156 -0.0820312 3.953125 -1.15625 C 2.753906 -2.226562 2.15625 -3.664062 2.15625 -5.46875 C 2.15625 -6.269531 2.296875 -7.035156 2.578125 -7.765625 C 2.867188 -8.503906 3.332031 -9.207031 3.96875 -9.875 C 4.601562 -10.550781 5.4375 -11.210938 6.46875 -11.859375 C 7.507812 -12.515625 8.78125 -13.175781 10.28125 -13.84375 Z M 17.515625 -17.015625 "/></g></g></g><g fill="#000000" fill-opacity="1"><g transform="translate(294.180902, 110.330777)"><g><path d="M 17.453125 -1.75 C 18.554688 -1.75 19.316406 -1.800781 19.734375 -1.90625 C 20.160156 -2.007812 20.375 -2.144531 20.375 -2.3125 C 20.332031 -2.570312 20.0625 -3.050781 19.5625 -3.75 C 19.0625 -4.457031 18.410156 -5.296875 17.609375 -6.265625 L 12.296875 -12.6875 L 10.4375 -10.9375 L 10.4375 -7.984375 C 10.4375 -6.671875 10.492188 -5.617188 10.609375 -4.828125 C 10.722656 -4.046875 10.9375 -3.429688 11.25 -2.984375 C 11.570312 -2.535156 12.039062 -2.226562 12.65625 -2.0625 C 13.28125 -1.894531 14.097656 -1.789062 15.109375 -1.75 L 15.109375 0 L 0.859375 0 L 0.859375 -1.75 C 1.859375 -1.789062 2.664062 -1.894531 3.28125 -2.0625 C 3.90625 -2.226562 4.390625 -2.523438 4.734375 -2.953125 C 5.085938 -3.390625 5.332031 -3.972656 5.46875 -4.703125 C 5.601562 -5.441406 5.671875 -6.414062 5.671875 -7.625 L 5.671875 -28.640625 C 5.671875 -31.191406 5.644531 -33.117188 5.59375 -34.421875 C 5.539062 -35.722656 5.363281 -36.609375 5.0625 -37.078125 C 4.757812 -37.546875 4.257812 -37.820312 3.5625 -37.90625 C 2.863281 -37.988281 1.925781 -38.03125 0.75 -38.03125 L 0.75 -39.734375 L 10.4375 -41.640625 L 10.4375 -14.09375 L 15.109375 -18.65625 C 16.609375 -20.164062 17.722656 -21.28125 18.453125 -22 C 19.191406 -22.71875 19.5625 -23.257812 19.5625 -23.625 C 19.5625 -24 19.207031 -24.289062 18.5 -24.5 C 17.800781 -24.71875 16.800781 -24.828125 15.5 -24.828125 L 15.5 -26.59375 L 28.546875 -26.59375 L 28.546875 -24.828125 C 27.910156 -24.828125 27.359375 -24.796875 26.890625 -24.734375 C 26.421875 -24.671875 25.976562 -24.535156 25.5625 -24.328125 C 25.144531 -24.128906 24.703125 -23.851562 24.234375 -23.5 C 23.765625 -23.15625 23.226562 -22.710938 22.625 -22.171875 L 15.40625 -15.75 L 25.34375 -4.515625 C 25.8125 -3.941406 26.234375 -3.476562 26.609375 -3.125 C 26.992188 -2.78125 27.378906 -2.503906 27.765625 -2.296875 C 28.148438 -2.097656 28.566406 -1.957031 29.015625 -1.875 C 29.472656 -1.789062 30.019531 -1.75 30.65625 -1.75 L 30.65625 0 L 17.453125 0 Z M 17.453125 -1.75 "/></g></g></g><g fill="#000000" fill-opacity="1"><g transform="translate(336.119029, 110.330777)"><g><path d="M 14.09375 7.875 C 12.5625 11.320312 10.171875 13.046875 6.921875 13.046875 C 4.816406 13.046875 3.765625 12.257812 3.765625 10.6875 C 3.765625 9.851562 4.054688 9.242188 4.640625 8.859375 C 5.222656 8.472656 6.300781 8.144531 7.875 7.875 C 8.582031 7.769531 9.1875 7.625 9.6875 7.4375 C 10.1875 7.257812 10.632812 7.03125 11.03125 6.75 C 11.4375 6.46875 11.796875 6.109375 12.109375 5.671875 C 12.429688 5.234375 12.742188 4.695312 13.046875 4.0625 L 14.796875 0.546875 L 5.171875 -20.375 C 4.734375 -21.3125 4.351562 -22.054688 4.03125 -22.609375 C 3.71875 -23.160156 3.382812 -23.59375 3.03125 -23.90625 C 2.6875 -24.226562 2.296875 -24.445312 1.859375 -24.5625 C 1.421875 -24.675781 0.867188 -24.765625 0.203125 -24.828125 L 0.203125 -26.59375 L 13.5 -26.59375 L 13.5 -24.828125 C 11.257812 -24.828125 10.140625 -24.273438 10.140625 -23.171875 C 10.140625 -22.742188 10.269531 -22.0625 10.53125 -21.125 C 10.800781 -20.1875 11.140625 -19.234375 11.546875 -18.265625 L 17.0625 -4.921875 L 17.3125 -4.921875 L 21.875 -16.203125 C 22.3125 -17.304688 22.671875 -18.207031 22.953125 -18.90625 C 23.234375 -19.613281 23.445312 -20.191406 23.59375 -20.640625 C 23.75 -21.097656 23.851562 -21.472656 23.90625 -21.765625 C 23.957031 -22.066406 23.984375 -22.351562 23.984375 -22.625 C 23.984375 -23.5 23.738281 -24.082031 23.25 -24.375 C 22.769531 -24.675781 21.84375 -24.828125 20.46875 -24.828125 L 20.46875 -26.59375 L 31.515625 -26.59375 L 31.515625 -24.828125 C 30.867188 -24.828125 30.328125 -24.742188 29.890625 -24.578125 C 29.460938 -24.410156 29.019531 -24.035156 28.5625 -23.453125 C 28.113281 -22.867188 27.613281 -22.023438 27.0625 -20.921875 C 26.507812 -19.816406 25.832031 -18.328125 25.03125 -16.453125 Z M 14.09375 7.875 "/></g></g></g><g fill="#000000" fill-opacity="1"><g transform="translate(379.210894, 110.330777)"><g/></g></g><g fill="#000000" fill-opacity="1"><g transform="translate(404.64531, 110.330777)"><g><path d="M 13.046875 -7.984375 C 13.046875 -6.710938 13.117188 -5.679688 13.265625 -4.890625 C 13.421875 -4.109375 13.75 -3.503906 14.25 -3.078125 C 14.75 -2.660156 15.457031 -2.367188 16.375 -2.203125 C 17.300781 -2.035156 18.515625 -1.9375 20.015625 -1.90625 L 20.015625 0 L 2.25 0 L 2.25 -1.90625 C 3.425781 -1.9375 4.375 -2.035156 5.09375 -2.203125 C 5.8125 -2.367188 6.367188 -2.648438 6.765625 -3.046875 C 7.171875 -3.453125 7.441406 -4.023438 7.578125 -4.765625 C 7.710938 -5.503906 7.78125 -6.457031 7.78125 -7.625 L 7.78125 -31 C 7.78125 -32.175781 7.71875 -33.125 7.59375 -33.84375 C 7.476562 -34.5625 7.242188 -35.128906 6.890625 -35.546875 C 6.546875 -35.960938 6.035156 -36.242188 5.359375 -36.390625 C 4.691406 -36.546875 3.828125 -36.65625 2.765625 -36.71875 L 2.765625 -38.625 L 31.765625 -38.625 L 32.3125 -29.046875 L 30.546875 -29.046875 C 30.347656 -30.484375 30.03125 -31.660156 29.59375 -32.578125 C 29.164062 -33.503906 28.554688 -34.234375 27.765625 -34.765625 C 26.984375 -35.304688 25.988281 -35.679688 24.78125 -35.890625 C 23.582031 -36.109375 22.078125 -36.21875 20.265625 -36.21875 L 13.890625 -36.21875 C 13.328125 -36.21875 13.046875 -35.9375 13.046875 -35.375 L 13.046875 -20.21875 C 14.648438 -20.21875 16.03125 -20.304688 17.1875 -20.484375 C 18.34375 -20.671875 19.296875 -21 20.046875 -21.46875 C 20.796875 -21.9375 21.367188 -22.570312 21.765625 -23.375 C 22.171875 -24.175781 22.425781 -25.210938 22.53125 -26.484375 L 24.28125 -26.484375 L 24.28125 -11.796875 L 22.53125 -11.796875 C 22.363281 -13.066406 22.09375 -14.117188 21.71875 -14.953125 C 21.351562 -15.785156 20.8125 -16.4375 20.09375 -16.90625 C 19.375 -17.375 18.445312 -17.707031 17.3125 -17.90625 C 16.175781 -18.113281 14.753906 -18.21875 13.046875 -18.21875 Z M 13.046875 -7.984375 "/></g></g></g><g fill="#000000" fill-opacity="1"><g transform="translate(449.29224, 110.330777)"><g><path d="M 17.515625 -14.84375 C 15.609375 -14.113281 13.992188 -13.394531 12.671875 -12.6875 C 11.347656 -11.988281 10.285156 -11.285156 9.484375 -10.578125 C 8.679688 -9.878906 8.101562 -9.175781 7.75 -8.46875 C 7.394531 -7.769531 7.21875 -7.054688 7.21875 -6.328125 C 7.21875 -5.222656 7.585938 -4.316406 8.328125 -3.609375 C 9.066406 -2.910156 10.035156 -2.5625 11.234375 -2.5625 C 12.109375 -2.5625 12.921875 -2.773438 13.671875 -3.203125 C 14.421875 -3.640625 15.078125 -4.234375 15.640625 -4.984375 C 16.210938 -5.742188 16.664062 -6.632812 17 -7.65625 C 17.34375 -8.675781 17.515625 -9.753906 17.515625 -10.890625 Z M 17.515625 -17.015625 L 17.515625 -19.0625 C 17.515625 -23.144531 15.773438 -25.1875 12.296875 -25.1875 C 11.722656 -25.1875 11.234375 -25.132812 10.828125 -25.03125 C 10.429688 -24.9375 10.097656 -24.769531 9.828125 -24.53125 C 9.566406 -24.300781 9.328125 -23.96875 9.109375 -23.53125 C 8.890625 -23.09375 8.679688 -22.554688 8.484375 -21.921875 C 8.109375 -20.953125 7.742188 -20.304688 7.390625 -19.984375 C 7.046875 -19.671875 6.539062 -19.515625 5.875 -19.515625 C 4.195312 -19.515625 3.359375 -20.351562 3.359375 -22.03125 C 3.359375 -23.632812 4.210938 -24.878906 5.921875 -25.765625 C 7.628906 -26.648438 10.050781 -27.09375 13.1875 -27.09375 C 16.539062 -27.09375 18.914062 -26.5 20.3125 -25.3125 C 21.71875 -24.125 22.421875 -22.109375 22.421875 -19.265625 L 22.421875 -8.03125 C 22.421875 -4.21875 23.175781 -2.3125 24.6875 -2.3125 C 25.15625 -2.3125 25.601562 -2.367188 26.03125 -2.484375 C 26.46875 -2.597656 26.835938 -2.90625 27.140625 -3.40625 L 27.84375 -2.203125 C 27.445312 -1.429688 26.710938 -0.785156 25.640625 -0.265625 C 24.566406 0.242188 23.445312 0.5 22.28125 0.5 C 20.800781 0.5 19.703125 0.03125 18.984375 -0.90625 C 18.265625 -1.84375 17.90625 -3.160156 17.90625 -4.859375 L 17.65625 -4.859375 C 16.789062 -3.222656 15.585938 -1.925781 14.046875 -0.96875 C 12.503906 -0.0195312 10.800781 0.453125 8.9375 0.453125 C 6.820312 0.453125 5.160156 -0.0820312 3.953125 -1.15625 C 2.753906 -2.226562 2.15625 -3.664062 2.15625 -5.46875 C 2.15625 -6.269531 2.296875 -7.035156 2.578125 -7.765625 C 2.867188 -8.503906 3.332031 -9.207031 3.96875 -9.875 C 4.601562 -10.550781 5.4375 -11.210938 6.46875 -11.859375 C 7.507812 -12.515625 8.78125 -13.175781 10.28125 -13.84375 Z M 17.515625 -17.015625 "/></g></g></g><g fill="#000000" fill-opacity="1"><g transform="translate(488.120237, 110.330777)"><g><path d="M 4.3125 0 L 3.21875 0 L 3.21875 -8.625 L 4.46875 -8.625 C 5.769531 -3.914062 8.144531 -1.5625 11.59375 -1.5625 C 12.925781 -1.5625 13.984375 -1.882812 14.765625 -2.53125 C 15.554688 -3.1875 15.953125 -4.179688 15.953125 -5.515625 C 15.953125 -6.015625 15.875 -6.441406 15.71875 -6.796875 C 15.570312 -7.148438 15.289062 -7.519531 14.875 -7.90625 C 14.457031 -8.289062 13.867188 -8.734375 13.109375 -9.234375 C 12.359375 -9.734375 11.367188 -10.367188 10.140625 -11.140625 C 8.992188 -11.835938 8.003906 -12.488281 7.171875 -13.09375 C 6.335938 -13.695312 5.632812 -14.304688 5.0625 -14.921875 C 4.5 -15.546875 4.070312 -16.207031 3.78125 -16.90625 C 3.5 -17.613281 3.359375 -18.429688 3.359375 -19.359375 C 3.359375 -20.503906 3.550781 -21.550781 3.9375 -22.5 C 4.320312 -23.457031 4.847656 -24.269531 5.515625 -24.9375 C 6.179688 -25.601562 6.96875 -26.128906 7.875 -26.515625 C 8.78125 -26.898438 9.769531 -27.09375 10.84375 -27.09375 C 11.738281 -27.09375 12.671875 -26.945312 13.640625 -26.65625 C 14.617188 -26.375 15.472656 -26 16.203125 -25.53125 L 17.203125 -26.59375 L 18.15625 -26.59375 L 18.15625 -19.359375 L 16.859375 -19.359375 C 16.117188 -21.398438 15.3125 -22.851562 14.4375 -23.71875 C 13.570312 -24.59375 12.503906 -25.03125 11.234375 -25.03125 C 10.097656 -25.03125 9.1875 -24.726562 8.5 -24.125 C 7.8125 -23.53125 7.46875 -22.695312 7.46875 -21.625 C 7.46875 -21.050781 7.5625 -20.554688 7.75 -20.140625 C 7.9375 -19.722656 8.226562 -19.3125 8.625 -18.90625 C 9.03125 -18.507812 9.539062 -18.101562 10.15625 -17.6875 C 10.78125 -17.269531 11.523438 -16.789062 12.390625 -16.25 C 13.828125 -15.351562 15.054688 -14.550781 16.078125 -13.84375 C 17.097656 -13.144531 17.925781 -12.453125 18.5625 -11.765625 C 19.195312 -11.078125 19.664062 -10.363281 19.96875 -9.625 C 20.269531 -8.894531 20.421875 -8.0625 20.421875 -7.125 C 20.421875 -4.75 19.648438 -2.882812 18.109375 -1.53125 C 16.566406 -0.175781 14.546875 0.5 12.046875 0.5 C 9.429688 0.5 7.1875 -0.25 5.3125 -1.75 Z M 4.3125 0 "/></g></g></g><g fill="#000000" fill-opacity="1"><g transform="translate(521.931933, 110.330777)"><g><path d="M 10.4375 -7.984375 C 10.4375 -6.609375 10.46875 -5.519531 10.53125 -4.71875 C 10.601562 -3.914062 10.78125 -3.300781 11.0625 -2.875 C 11.34375 -2.457031 11.75 -2.179688 12.28125 -2.046875 C 12.820312 -1.921875 13.578125 -1.820312 14.546875 -1.75 L 14.546875 0 L 1.203125 0 L 1.203125 -1.75 C 2.171875 -1.820312 2.9375 -1.921875 3.5 -2.046875 C 4.070312 -2.179688 4.507812 -2.453125 4.8125 -2.859375 C 5.113281 -3.265625 5.304688 -3.84375 5.390625 -4.59375 C 5.472656 -5.34375 5.515625 -6.351562 5.515625 -7.625 L 5.515625 -28.640625 C 5.515625 -30.617188 5.488281 -32.191406 5.4375 -33.359375 C 5.394531 -34.535156 5.304688 -35.421875 5.171875 -36.015625 C 5.097656 -36.421875 4.984375 -36.75 4.828125 -37 C 4.679688 -37.25 4.457031 -37.445312 4.15625 -37.59375 C 3.863281 -37.75 3.460938 -37.859375 2.953125 -37.921875 C 2.453125 -37.992188 1.835938 -38.03125 1.109375 -38.03125 L 1.109375 -39.734375 L 10.328125 -41.640625 L 10.328125 -22.53125 L 10.53125 -22.53125 C 11.03125 -23.195312 11.65625 -23.804688 12.40625 -24.359375 C 13.164062 -24.910156 13.976562 -25.382812 14.84375 -25.78125 C 15.71875 -26.1875 16.628906 -26.503906 17.578125 -26.734375 C 18.535156 -26.972656 19.46875 -27.09375 20.375 -27.09375 C 21.90625 -27.09375 23.316406 -26.820312 24.609375 -26.28125 C 25.898438 -25.75 26.894531 -25.03125 27.59375 -24.125 C 28.164062 -23.363281 28.582031 -22.351562 28.84375 -21.09375 C 29.113281 -19.84375 29.25 -18.144531 29.25 -16 L 29.25 -7.984375 C 29.25 -6.609375 29.28125 -5.523438 29.34375 -4.734375 C 29.414062 -3.953125 29.59375 -3.34375 29.875 -2.90625 C 30.15625 -2.46875 30.5625 -2.179688 31.09375 -2.046875 C 31.632812 -1.921875 32.390625 -1.820312 33.359375 -1.75 L 33.359375 0 L 20.0625 0 L 20.0625 -1.75 C 21 -1.789062 21.75 -1.882812 22.3125 -2.03125 C 22.882812 -2.175781 23.3125 -2.453125 23.59375 -2.859375 C 23.882812 -3.265625 24.070312 -3.84375 24.15625 -4.59375 C 24.238281 -5.34375 24.28125 -6.351562 24.28125 -7.625 L 24.28125 -13.953125 C 24.28125 -17.691406 23.84375 -20.351562 22.96875 -21.9375 C 22.101562 -23.53125 20.648438 -24.328125 18.609375 -24.328125 C 17.035156 -24.328125 15.601562 -23.925781 14.3125 -23.125 C 13.03125 -22.320312 12.019531 -21.21875 11.28125 -19.8125 C 11.113281 -19.445312 10.972656 -19.101562 10.859375 -18.78125 C 10.742188 -18.46875 10.648438 -18.109375 10.578125 -17.703125 C 10.515625 -17.304688 10.472656 -16.847656 10.453125 -16.328125 C 10.441406 -15.804688 10.4375 -15.164062 10.4375 -14.40625 Z M 10.4375 -7.984375 "/></g></g></g><g fill="#000000" fill-opacity="1"><g transform="translate(567.48182, 110.330777)"><g><path d="M 11.4375 -7.984375 C 11.4375 -6.671875 11.492188 -5.617188 11.609375 -4.828125 C 11.734375 -4.046875 11.960938 -3.429688 12.296875 -2.984375 C 12.628906 -2.535156 13.09375 -2.226562 13.6875 -2.0625 C 14.289062 -1.894531 15.097656 -1.789062 16.109375 -1.75 L 16.109375 0 L 1.703125 0 L 1.703125 -1.75 C 2.710938 -1.789062 3.535156 -1.898438 4.171875 -2.078125 C 4.804688 -2.265625 5.296875 -2.566406 5.640625 -2.984375 C 5.992188 -3.398438 6.226562 -3.984375 6.34375 -4.734375 C 6.457031 -5.492188 6.515625 -6.457031 6.515625 -7.625 L 6.515625 -14.046875 C 6.515625 -15.984375 6.488281 -17.578125 6.4375 -18.828125 C 6.394531 -20.085938 6.304688 -20.953125 6.171875 -21.421875 C 6.003906 -22.191406 5.617188 -22.71875 5.015625 -23 C 4.410156 -23.289062 3.273438 -23.4375 1.609375 -23.4375 L 1.609375 -25.1875 L 11.4375 -27.09375 Z M 5.671875 -37.28125 C 5.671875 -38.144531 5.96875 -38.878906 6.5625 -39.484375 C 7.164062 -40.085938 7.90625 -40.390625 8.78125 -40.390625 C 9.644531 -40.390625 10.378906 -40.085938 10.984375 -39.484375 C 11.585938 -38.878906 11.890625 -38.144531 11.890625 -37.28125 C 11.890625 -36.40625 11.585938 -35.664062 10.984375 -35.0625 C 10.378906 -34.46875 9.644531 -34.171875 8.78125 -34.171875 C 7.90625 -34.171875 7.164062 -34.46875 6.5625 -35.0625 C 5.96875 -35.664062 5.671875 -36.40625 5.671875 -37.28125 Z M 5.671875 -37.28125 "/></g></g></g><g fill="#000000" fill-opacity="1"><g transform="translate(595.625062, 110.330777)"><g><path d="M 16.3125 -27.09375 C 18.21875 -27.09375 20.019531 -26.75 21.71875 -26.0625 C 23.425781 -25.375 24.921875 -24.425781 26.203125 -23.21875 C 27.492188 -22.019531 28.515625 -20.59375 29.265625 -18.9375 C 30.023438 -17.28125 30.40625 -15.46875 30.40625 -13.5 C 30.40625 -11.457031 30.023438 -9.582031 29.265625 -7.875 C 28.515625 -6.164062 27.492188 -4.691406 26.203125 -3.453125 C 24.921875 -2.222656 23.425781 -1.253906 21.71875 -0.546875 C 20.019531 0.148438 18.21875 0.5 16.3125 0.5 C 14.4375 0.5 12.648438 0.15625 10.953125 -0.53125 C 9.265625 -1.21875 7.785156 -2.175781 6.515625 -3.40625 C 5.242188 -4.644531 4.238281 -6.125 3.5 -7.84375 C 2.769531 -9.570312 2.40625 -11.457031 2.40625 -13.5 C 2.40625 -15.46875 2.769531 -17.285156 3.5 -18.953125 C 4.238281 -20.628906 5.242188 -22.066406 6.515625 -23.265625 C 7.785156 -24.472656 9.265625 -25.410156 10.953125 -26.078125 C 12.648438 -26.753906 14.4375 -27.09375 16.3125 -27.09375 Z M 16.3125 -24.6875 C 15.070312 -24.6875 13.941406 -24.414062 12.921875 -23.875 C 11.898438 -23.34375 11.03125 -22.582031 10.3125 -21.59375 C 9.59375 -20.613281 9.039062 -19.425781 8.65625 -18.03125 C 8.269531 -16.644531 8.078125 -15.117188 8.078125 -13.453125 C 8.078125 -11.710938 8.269531 -10.140625 8.65625 -8.734375 C 9.039062 -7.328125 9.59375 -6.128906 10.3125 -5.140625 C 11.03125 -4.148438 11.890625 -3.390625 12.890625 -2.859375 C 13.898438 -2.328125 15.039062 -2.0625 16.3125 -2.0625 C 17.582031 -2.0625 18.734375 -2.328125 19.765625 -2.859375 C 20.804688 -3.390625 21.691406 -4.15625 22.421875 -5.15625 C 23.160156 -6.164062 23.726562 -7.375 24.125 -8.78125 C 24.53125 -10.1875 24.734375 -11.742188 24.734375 -13.453125 C 24.734375 -15.117188 24.53125 -16.632812 24.125 -18 C 23.726562 -19.375 23.160156 -20.554688 22.421875 -21.546875 C 21.691406 -22.535156 20.804688 -23.304688 19.765625 -23.859375 C 18.734375 -24.410156 17.582031 -24.6875 16.3125 -24.6875 Z M 16.3125 -24.6875 "/></g></g></g><g fill="#000000" fill-opacity="1"><g transform="translate(639.469383, 110.330777)"><g><path d="M 10.84375 -7.875 C 10.84375 -6.5 10.875 -5.421875 10.9375 -4.640625 C 11 -3.859375 11.171875 -3.253906 11.453125 -2.828125 C 11.742188 -2.410156 12.164062 -2.132812 12.71875 -2 C 13.269531 -1.875 14.03125 -1.773438 15 -1.703125 L 15 0 L 1.859375 0 L 1.859375 -1.703125 C 2.796875 -1.773438 3.539062 -1.875 4.09375 -2 C 4.644531 -2.132812 5.066406 -2.398438 5.359375 -2.796875 C 5.660156 -3.203125 5.851562 -3.773438 5.9375 -4.515625 C 6.03125 -5.253906 6.078125 -6.257812 6.078125 -7.53125 L 6.078125 -14.203125 C 6.078125 -18.179688 5.972656 -20.601562 5.765625 -21.46875 C 5.671875 -21.90625 5.546875 -22.265625 5.390625 -22.546875 C 5.242188 -22.835938 5.019531 -23.054688 4.71875 -23.203125 C 4.414062 -23.359375 4.03125 -23.457031 3.5625 -23.5 C 3.09375 -23.550781 2.488281 -23.578125 1.75 -23.578125 L 1.75 -25.1875 L 9.78125 -27.09375 L 10.390625 -22.125 L 10.59375 -22.125 C 11.863281 -23.695312 13.347656 -24.914062 15.046875 -25.78125 C 16.753906 -26.65625 18.613281 -27.09375 20.625 -27.09375 C 22.15625 -27.09375 23.554688 -26.84375 24.828125 -26.34375 C 26.097656 -25.84375 27.070312 -25.15625 27.75 -24.28125 C 28.3125 -23.507812 28.707031 -22.515625 28.9375 -21.296875 C 29.175781 -20.078125 29.296875 -18.394531 29.296875 -16.25 L 29.296875 -7.875 C 29.296875 -6.5 29.335938 -5.421875 29.421875 -4.640625 C 29.503906 -3.859375 29.679688 -3.253906 29.953125 -2.828125 C 30.222656 -2.410156 30.632812 -2.132812 31.1875 -2 C 31.738281 -1.875 32.460938 -1.773438 33.359375 -1.703125 L 33.359375 0 L 20.375 0 L 20.375 -1.703125 C 21.3125 -1.734375 22.054688 -1.820312 22.609375 -1.96875 C 23.160156 -2.125 23.578125 -2.398438 23.859375 -2.796875 C 24.140625 -3.203125 24.320312 -3.78125 24.40625 -4.53125 C 24.488281 -5.289062 24.53125 -6.289062 24.53125 -7.53125 L 24.53125 -14.15625 C 24.53125 -16.0625 24.429688 -17.664062 24.234375 -18.96875 C 24.035156 -20.269531 23.707031 -21.320312 23.25 -22.125 C 22.800781 -22.925781 22.207031 -23.503906 21.46875 -23.859375 C 20.738281 -24.210938 19.851562 -24.390625 18.8125 -24.390625 C 17.3125 -24.390625 15.929688 -23.992188 14.671875 -23.203125 C 13.421875 -22.421875 12.441406 -21.34375 11.734375 -19.96875 C 11.566406 -19.632812 11.425781 -19.316406 11.3125 -19.015625 C 11.195312 -18.710938 11.101562 -18.359375 11.03125 -17.953125 C 10.96875 -17.554688 10.921875 -17.097656 10.890625 -16.578125 C 10.859375 -16.054688 10.84375 -15.394531 10.84375 -14.59375 Z M 10.84375 -7.875 "/></g></g></g></svg>